  0
SECTION
  2
HEADER
  9
$ACADVER
  1
AC1014
  9
$HANDSEED
  5
FFFF
  9
$MEASUREMENT
 70
     1
  0
ENDSEC
  0
SECTION
  2
TABLES
  0
TABLE
  2
VPORT
  5
8
330
0
100
AcDbSymbolTable
 70
     4
  0
VPORT
  5
2E
330
8
100
AcDbSymbolTableRecord
100
AcDbViewportTableRecord
  2
*ACTIVE
 70
     0
 10
0.0
 20
0.0
 11
1.0
 21
1.0
 12
210.0
 22
148.5
 13
0.0
 23
0.0
 14
10.0
 24
10.0
 15
10.0
 25
10.0
 16
0.0
 26
0.0
 36
1.0
 17
0.0
 27
0.0
 37
0.0
 40
341.0
 41
1.24
 42
50.0
 43
0.0
 44
0.0
 50
0.0
 51
0.0
 71
     0
 72
   100
 73
     1
 74
     3
 75
     0
 76
     0
 77
     0
 78
     0
  0
ENDTAB
  0
TABLE
  2
LTYPE
  5
5
330
0
100
AcDbSymbolTable
 70
     1
  0
LTYPE
  5
14
330
5
100
AcDbSymbolTableRecord
100
AcDbLinetypeTableRecord
  2
BYBLOCK
 70
     0
  3

 72
    65
 73
     0
 40
0.0
  0
LTYPE
  5
15
330
5
100
AcDbSymbolTableRecord
100
AcDbLinetypeTableRecord
  2
BYLAYER
 70
     0
  3

 72
    65
 73
     0
 40
0.0
  0
LTYPE
  5
16
330
5
100
AcDbSymbolTableRecord
100
AcDbLinetypeTableRecord
  2
CONTINUOUS
 70
     0
  3
Solid line
 72
    65
 73
     0
 40
0.0
  0
ENDTAB
  0
TABLE
  2
LAYER
  5
2
100
AcDbSymbolTable
 70
3
  0
LAYER
  5
50
100
AcDbSymbolTableRecord
100
AcDbLayerTableRecord
  2
0
 70
0
  6
CONTINUOUS
  0
LAYER
  5
51
100
AcDbSymbolTableRecord
100
AcDbLayerTableRecord
  2
fondo
 70
0
  6
CONTINUOUS
  0
LAYER
  5
52
100
AcDbSymbolTableRecord
100
AcDbLayerTableRecord
  2
Capa_1
 70
0
  6
CONTINUOUS
  0
ENDTAB
  0
TABLE
  2
STYLE
  5
3
330
0
100
AcDbSymbolTable
 70
     1
  0
STYLE
  5
11
330
3
100
AcDbSymbolTableRecord
100
AcDbTextStyleTableRecord
  2
STANDARD
 70
     0
 40
0.0
 41
1.0
 50
0.0
 71
     0
 42
2.5
  3
txt
  4

  0
ENDTAB
  0
TABLE
  2
VIEW
  5
6
330
0
100
AcDbSymbolTable
 70
     0
  0
ENDTAB
  0
TABLE
  2
UCS
  5
7
330
0
100
AcDbSymbolTable
 70
     0
  0
ENDTAB
  0
TABLE
  2
APPID
  5
9
330
0
100
AcDbSymbolTable
 70
     2
  0
APPID
  5
12
330
9
100
AcDbSymbolTableRecord
100
AcDbRegAppTableRecord
  2
ACAD
 70
     0
  0
ENDTAB
  0
TABLE
  2
DIMSTYLE
  5
A
330
0
100
AcDbSymbolTable
 70
     1
  0
DIMSTYLE
105
27
330
A
100
AcDbSymbolTableRecord
100
AcDbDimStyleTableRecord
  2
ISO-25
 70
     0
  3

  4

  5

  6

  7

 40
1.0
 41
2.5
 42
0.625
 43
3.75
 44
1.25
 45
0.0
 46
0.0
 47
0.0
 48
0.0
140
2.5
141
2.5
142
0.0
143
0.03937007874016
144
1.0
145
0.0
146
1.0
147
0.625
 71
     0
 72
     0
 73
     0
 74
     0
 75
     0
 76
     0
 77
     1
 78
     8
170
     0
171
     3
172
     1
173
     0
174
     0
175
     0
176
     0
177
     0
178
     0
270
     2
271
     2
272
     2
273
     2
274
     3
340
11
275
     0
280
     0
281
     0
282
     0
283
     0
284
     8
285
     0
286
     0
287
     3
288
     0
  0
ENDTAB
  0
TABLE
  2
BLOCK_RECORD
  5
1
330
0
100
AcDbSymbolTable
 70
     1
  0
BLOCK_RECORD
  5
1F
330
1
100
AcDbSymbolTableRecord
100
AcDbBlockTableRecord
  2
*MODEL_SPACE
  0
BLOCK_RECORD
  5
1B
330
1
100
AcDbSymbolTableRecord
100
AcDbBlockTableRecord
  2
*PAPER_SPACE
  0
ENDTAB
  0
ENDSEC
  0
SECTION
  2
BLOCKS
  0
BLOCK
  5
20
330
1F
100
AcDbEntity
  8
0
100
AcDbBlockBegin
  2
*MODEL_SPACE
 70
     0
 10
0.0
 20
0.0
 30
0.0
  3
*MODEL_SPACE
  1

  0
ENDBLK
  5
21
330
1F
100
AcDbEntity
  8
0
100
AcDbBlockEnd
  0
BLOCK
  5
1C
330
1B
100
AcDbEntity
 67
     1
  8
0
100
AcDbBlockBegin
  2
*PAPER_SPACE
  1

  0
ENDBLK
  5
1D
330
1B
100
AcDbEntity
 67
     1
  8
0
100
AcDbBlockEnd
  0
ENDSEC
  0
SECTION
  2
ENTITIES
  0
LWPOLYLINE
  5
100
100
AcDbEntity
  8
Capa_1
 62
7
100
AcDbPolyline
 90
4
 70
1
 10
167.824477
 20
488.331507
 30
0.0
 10
376.927583
 20
488.331507
 30
0.0
 10
376.927583
 20
283.772394
 30
0.0
 10
167.824477
 20
283.772394
 30
0.0
  0
LWPOLYLINE
  5
101
100
AcDbEntity
  8
Capa_1
 62
7
100
AcDbPolyline
 90
4
 70
1
 10
325.003770
 20
449.682620
 30
0.0
 10
345.228213
 20
425.165322
 30
0.0
 10
221.270459
 20
319.362593
 30
0.0
 10
201.046016
 20
343.879891
 30
0.0
  0
LWPOLYLINE
  5
102
100
AcDbEntity
  8
Capa_1
 62
7
100
AcDbPolyline
 90
4
 70
1
 10
317.937864
 20
425.174805
 30
0.0
 10
345.212318
 20
425.174805
 30
0.0
 10
345.212318
 20
352.442550
 30
0.0
 10
317.937864
 20
352.442550
 30
0.0
  0
SPLINE
  5
103
100
AcDbEntity
  8
Capa_1
 62
7
100
AcDbSpline
 70
8
 71
3
 72
8
 73
4
 74
0
 40
0
 40
0
 40
0
 40
0
 40
1
 40
1
 40
1
 40
1
 10
572.232718
 20
325.315015
 30
0.0
 10
565.032628
 20
320.114950
 30
0.0
 10
557.332531
 20
316.214900
 30
0.0
 10
549.132426
 20
313.614865
 30
0.0
  0
SPLINE
  5
104
100
AcDbEntity
  8
Capa_1
 62
7
100
AcDbSpline
 70
8
 71
3
 72
8
 73
4
 74
0
 40
0
 40
0
 40
0
 40
0
 40
1
 40
1
 40
1
 40
1
 10
549.132426
 20
313.614865
 30
0.0
 10
540.998991
 20
311.081500
 30
0.0
 10
532.065546
 20
309.814817
 30
0.0
 10
522.332091
 20
309.814817
 30
0.0
  0
SPLINE
  5
105
100
AcDbEntity
  8
Capa_1
 62
7
100
AcDbSpline
 70
8
 71
3
 72
8
 73
4
 74
0
 40
0
 40
0
 40
0
 40
0
 40
1
 40
1
 40
1
 40
1
 10
522.332091
 20
309.814817
 30
0.0
 10
510.798611
 20
309.814817
 30
0.0
 10
500.398481
 20
311.581507
 30
0.0
 10
491.131701
 20
315.114887
 30
0.0
  0
SPLINE
  5
106
100
AcDbEntity
  8
Capa_1
 62
7
100
AcDbSpline
 70
8
 71
3
 72
8
 73
4
 74
0
 40
0
 40
0
 40
0
 40
0
 40
1
 40
1
 40
1
 40
1
 10
491.131701
 20
315.114887
 30
0.0
 10
481.864916
 20
318.714932
 30
0.0
 10
473.931481
 20
323.714995
 30
0.0
 10
467.331396
 20
330.115075
 30
0.0
  0
SPLINE
  5
107
100
AcDbEntity
  8
Capa_1
 62
7
100
AcDbSpline
 70
8
 71
3
 72
8
 73
4
 74
0
 40
0
 40
0
 40
0
 40
0
 40
1
 40
1
 40
1
 40
1
 10
467.331396
 20
330.115075
 30
0.0
 10
460.797981
 20
336.581820
 30
0.0
 10
455.764586
 20
344.315250
 30
0.0
 10
452.231211
 20
353.315365
 30
0.0
  0
SPLINE
  5
108
100
AcDbEntity
  8
Capa_1
 62
7
100
AcDbSpline
 70
8
 71
3
 72
8
 73
4
 74
0
 40
0
 40
0
 40
0
 40
0
 40
1
 40
1
 40
1
 40
1
 10
452.231211
 20
353.315365
 30
0.0
 10
448.697831
 20
362.315475
 30
0.0
 10
446.931141
 20
372.215600
 30
0.0
 10
446.931141
 20
383.015740
 30
0.0
  0
SPLINE
  5
109
100
AcDbEntity
  8
Capa_1
 62
7
100
AcDbSpline
 70
8
 71
3
 72
8
 73
4
 74
0
 40
0
 40
0
 40
0
 40
0
 40
1
 40
1
 40
1
 40
1
 10
446.931141
 20
383.015740
 30
0.0
 10
446.931141
 20
393.949210
 30
0.0
 10
448.631163
 20
403.916000
 30
0.0
 10
452.031208
 20
412.916110
 30
0.0
  0
SPLINE
  5
10a
100
AcDbEntity
  8
Capa_1
 62
7
100
AcDbSpline
 70
8
 71
3
 72
8
 73
4
 74
0
 40
0
 40
0
 40
0
 40
0
 40
1
 40
1
 40
1
 40
1
 10
452.031208
 20
412.916110
 30
0.0
 10
455.497918
 20
421.916225
 30
0.0
 10
460.397978
 20
429.616322
 30
0.0
 10
466.731388
 20
436.016402
 30
0.0
  0
SPLINE
  5
10b
100
AcDbEntity
  8
Capa_1
 62
7
100
AcDbSpline
 70
8
 71
3
 72
8
 73
4
 74
0
 40
0
 40
0
 40
0
 40
0
 40
1
 40
1
 40
1
 40
1
 10
466.731388
 20
436.016402
 30
0.0
 10
473.064803
 20
442.483147
 30
0.0
 10
480.764901
 20
447.483210
 30
0.0
 10
489.831681
 20
451.016590
 30
0.0
  0
SPLINE
  5
10c
100
AcDbEntity
  8
Capa_1
 62
7
100
AcDbSpline
 70
8
 71
3
 72
8
 73
4
 74
0
 40
0
 40
0
 40
0
 40
0
 40
1
 40
1
 40
1
 40
1
 10
489.831681
 20
451.016590
 30
0.0
 10
498.898461
 20
454.549970
 30
0.0
 10
509.031921
 20
456.316660
 30
0.0
 10
520.232061
 20
456.316660
 30
0.0
  0
SPLINE
  5
10d
100
AcDbEntity
  8
Capa_1
 62
7
100
AcDbSpline
 70
8
 71
3
 72
8
 73
4
 74
0
 40
0
 40
0
 40
0
 40
0
 40
1
 40
1
 40
1
 40
1
 10
520.232061
 20
456.316660
 30
0.0
 10
525.898801
 20
456.316660
 30
0.0
 10
531.165533
 20
455.883320
 30
0.0
 10
536.032258
 20
455.016640
 30
0.0
  0
SPLINE
  5
10e
100
AcDbEntity
  8
Capa_1
 62
7
100
AcDbSpline
 70
8
 71
3
 72
8
 73
4
 74
0
 40
0
 40
0
 40
0
 40
0
 40
1
 40
1
 40
1
 40
1
 10
536.032258
 20
455.016640
 30
0.0
 10
540.898988
 20
454.216630
 30
0.0
 10
545.399046
 20
453.016615
 30
0.0
 10
549.532431
 20
451.416595
 30
0.0
  0
SPLINE
  5
10f
100
AcDbEntity
  8
Capa_1
 62
7
100
AcDbSpline
 70
8
 71
3
 72
8
 73
4
 74
0
 40
0
 40
0
 40
0
 40
0
 40
1
 40
1
 40
1
 40
1
 10
549.532431
 20
451.416595
 30
0.0
 10
553.665816
 20
449.883240
 30
0.0
 10
557.499198
 20
447.983215
 30
0.0
 10
561.032578
 20
445.716520
 30
0.0
  0
SPLINE
  5
110
100
AcDbEntity
  8
Capa_1
 62
7
100
AcDbSpline
 70
8
 71
3
 72
8
 73
4
 74
0
 40
0
 40
0
 40
0
 40
0
 40
1
 40
1
 40
1
 40
1
 10
561.032578
 20
445.716520
 30
0.0
 10
564.565953
 20
443.516495
 30
0.0
 10
567.865993
 20
441.016465
 30
0.0
 10
570.932698
 20
438.216430
 30
0.0
  0
LWPOLYLINE
  5
111
100
AcDbEntity
  8
Capa_1
 62
7
100
AcDbPolyline
 90
4
 70
1
 10
252.269635
 20
422.425164
 30
0.0
 10
252.269635
 20
449.699618
 30
0.0
 10
345.224507
 20
449.699618
 30
0.0
 10
345.224507
 20
422.425164
 30
0.0
  0
SPLINE
  5
112
100
AcDbEntity
  8
Capa_1
 62
7
100
AcDbSpline
 70
8
 71
3
 72
8
 73
4
 74
0
 40
0
 40
0
 40
0
 40
0
 40
1
 40
1
 40
1
 40
1
 10
565.432633
 20
429.416320
 30
0.0
 10
564.565953
 20
428.082970
 30
0.0
 10
563.432606
 20
427.216292
 30
0.0
 10
562.032591
 20
426.816287
 30
0.0
  0
SPLINE
  5
113
100
AcDbEntity
  8
Capa_1
 62
7
100
AcDbSpline
 70
8
 71
3
 72
8
 73
4
 74
0
 40
0
 40
0
 40
0
 40
0
 40
1
 40
1
 40
1
 40
1
 10
562.032591
 20
426.816287
 30
0.0
 10
560.699241
 20
426.482947
 30
0.0
 10
559.199221
 20
426.816285
 30
0.0
 10
557.532531
 20
427.816300
 30
0.0
  0
SPLINE
  5
114
100
AcDbEntity
  8
Capa_1
 62
7
100
AcDbSpline
 70
8
 71
3
 72
8
 73
4
 74
0
 40
0
 40
0
 40
0
 40
0
 40
1
 40
1
 40
1
 40
1
 10
557.532531
 20
427.816300
 30
0.0
 10
555.932511
 20
428.749645
 30
0.0
 10
554.099153
 20
429.882992
 30
0.0
 10
552.032458
 20
431.216342
 30
0.0
  0
SPLINE
  5
115
100
AcDbEntity
  8
Capa_1
 62
7
100
AcDbSpline
 70
8
 71
3
 72
8
 73
4
 74
0
 40
0
 40
0
 40
0
 40
0
 40
1
 40
1
 40
1
 40
1
 10
552.032458
 20
431.216342
 30
0.0
 10
549.965768
 20
432.549692
 30
0.0
 10
547.432403
 20
433.816375
 30
0.0
 10
544.432363
 20
435.016390
 30
0.0
  0
SPLINE
  5
116
100
AcDbEntity
  8
Capa_1
 62
7
100
AcDbSpline
 70
8
 71
3
 72
8
 73
4
 74
0
 40
0
 40
0
 40
0
 40
0
 40
1
 40
1
 40
1
 40
1
 10
544.432363
 20
435.016390
 30
0.0
 10
541.498993
 20
436.283070
 30
0.0
 10
537.998951
 20
437.349750
 30
0.0
 10
533.932236
 20
438.216430
 30
0.0
  0
SPLINE
  5
117
100
AcDbEntity
  8
Capa_1
 62
7
100
AcDbSpline
 70
8
 71
3
 72
8
 73
4
 74
0
 40
0
 40
0
 40
0
 40
0
 40
1
 40
1
 40
1
 40
1
 10
533.932236
 20
438.216430
 30
0.0
 10
529.932186
 20
439.083105
 30
0.0
 10
525.165458
 20
439.516442
 30
0.0
 10
519.632053
 20
439.516442
 30
0.0
  0
SPLINE
  5
118
100
AcDbEntity
  8
Capa_1
 62
7
100
AcDbSpline
 70
8
 71
3
 72
8
 73
4
 74
0
 40
0
 40
0
 40
0
 40
0
 40
1
 40
1
 40
1
 40
1
 10
519.632053
 20
439.516442
 30
0.0
 10
511.565288
 20
439.516442
 30
0.0
 10
504.265198
 20
438.183092
 30
0.0
 10
497.731783
 20
435.516392
 30
0.0
  0
SPLINE
  5
119
100
AcDbEntity
  8
Capa_1
 62
7
100
AcDbSpline
 70
8
 71
3
 72
8
 73
4
 74
0
 40
0
 40
0
 40
0
 40
0
 40
1
 40
1
 40
1
 40
1
 10
497.731783
 20
435.516392
 30
0.0
 10
491.198368
 20
432.916362
 30
0.0
 10
485.631631
 20
429.149650
 30
0.0
 10
481.031571
 20
424.216255
 30
0.0
  0
SPLINE
  5
11a
100
AcDbEntity
  8
Capa_1
 62
7
100
AcDbSpline
 70
8
 71
3
 72
8
 73
4
 74
0
 40
0
 40
0
 40
0
 40
0
 40
1
 40
1
 40
1
 40
1
 10
481.031571
 20
424.216255
 30
0.0
 10
476.431511
 20
419.349525
 30
0.0
 10
472.898133
 20
413.416117
 30
0.0
 10
470.431438
 20
406.416032
 30
0.0
  0
SPLINE
  5
11b
100
AcDbEntity
  8
Capa_1
 62
7
100
AcDbSpline
 70
8
 71
3
 72
8
 73
4
 74
0
 40
0
 40
0
 40
0
 40
0
 40
1
 40
1
 40
1
 40
1
 10
470.431438
 20
406.416032
 30
0.0
 10
467.964738
 20
399.482612
 30
0.0
 10
466.731388
 20
391.682515
 30
0.0
 10
466.731388
 20
383.015740
 30
0.0
  0
SPLINE
  5
11c
100
AcDbEntity
  8
Capa_1
 62
7
100
AcDbSpline
 70
8
 71
3
 72
8
 73
4
 74
0
 40
0
 40
0
 40
0
 40
0
 40
1
 40
1
 40
1
 40
1
 10
466.731388
 20
383.015740
 30
0.0
 10
466.731388
 20
374.015625
 30
0.0
 10
467.998071
 20
365.948855
 30
0.0
 10
470.531436
 20
358.815430
 30
0.0
  0
SPLINE
  5
11d
100
AcDbEntity
  8
Capa_1
 62
7
100
AcDbSpline
 70
8
 71
3
 72
8
 73
4
 74
0
 40
0
 40
0
 40
0
 40
0
 40
1
 40
1
 40
1
 40
1
 10
470.531436
 20
358.815430
 30
0.0
 10
473.131471
 20
351.748675
 30
0.0
 10
476.798183
 20
345.715267
 30
0.0
 10
481.531573
 20
340.715207
 30
0.0
  0
SPLINE
  5
11e
100
AcDbEntity
  8
Capa_1
 62
7
100
AcDbSpline
 70
8
 71
3
 72
8
 73
4
 74
0
 40
0
 40
0
 40
0
 40
0
 40
1
 40
1
 40
1
 40
1
 10
481.531573
 20
340.715207
 30
0.0
 10
486.331638
 20
335.781812
 30
0.0
 10
492.131713
 20
332.015097
 30
0.0
 10
498.931798
 20
329.415062
 30
0.0
  0
SPLINE
  5
11f
100
AcDbEntity
  8
Capa_1
 62
7
100
AcDbSpline
 70
8
 71
3
 72
8
 73
4
 74
0
 40
0
 40
0
 40
0
 40
0
 40
1
 40
1
 40
1
 40
1
 10
498.931798
 20
329.415062
 30
0.0
 10
505.731883
 20
326.815032
 30
0.0
 10
513.365311
 20
325.515017
 30
0.0
 10
521.832081
 20
325.515017
 30
0.0
  0
SPLINE
  5
120
100
AcDbEntity
  8
Capa_1
 62
7
100
AcDbSpline
 70
8
 71
3
 72
8
 73
4
 74
0
 40
0
 40
0
 40
0
 40
0
 40
1
 40
1
 40
1
 40
1
 10
521.832081
 20
325.515017
 30
0.0
 10
525.165456
 20
325.515017
 30
0.0
 10
528.265496
 20
325.715020
 30
0.0
 10
531.132201
 20
326.115025
 30
0.0
  0
SPLINE
  5
121
100
AcDbEntity
  8
Capa_1
 62
7
100
AcDbSpline
 70
8
 71
3
 72
8
 73
4
 74
0
 40
0
 40
0
 40
0
 40
0
 40
1
 40
1
 40
1
 40
1
 10
531.132201
 20
326.115025
 30
0.0
 10
534.065571
 20
326.515030
 30
0.0
 10
536.865606
 20
327.048370
 30
0.0
 10
539.532306
 20
327.715045
 30
0.0
  0
SPLINE
  5
122
100
AcDbEntity
  8
Capa_1
 62
7
100
AcDbSpline
 70
8
 71
3
 72
8
 73
4
 74
0
 40
0
 40
0
 40
0
 40
0
 40
1
 40
1
 40
1
 40
1
 10
539.532306
 20
327.715045
 30
0.0
 10
542.199006
 20
328.448385
 30
0.0
 10
544.765703
 20
329.315062
 30
0.0
 10
547.232398
 20
330.315077
 30
0.0
  0
SPLINE
  5
123
100
AcDbEntity
  8
Capa_1
 62
7
100
AcDbSpline
 70
8
 71
3
 72
8
 73
4
 74
0
 40
0
 40
0
 40
0
 40
0
 40
1
 40
1
 40
1
 40
1
 10
547.232398
 20
330.315077
 30
0.0
 10
549.699098
 20
331.381757
 30
0.0
 10
552.199131
 20
332.581772
 30
0.0
 10
554.732496
 20
333.915122
 30
0.0
  0
LWPOLYLINE
  5
124
100
AcDbEntity
  8
Capa_1
 62
7
100
AcDbPolyline
 90
2
 70
0
 10
570.932698
 20
438.216430
 30
0.0
 10
565.432633
 20
429.416320
 30
0.0
  0
SPLINE
  5
125
100
AcDbEntity
  8
Capa_1
 62
7
100
AcDbSpline
 70
8
 71
3
 72
8
 73
4
 74
0
 40
0
 40
0
 40
0
 40
0
 40
1
 40
1
 40
1
 40
1
 10
532.432213
 20
365.515517
 30
0.0
 10
531.165533
 20
365.515517
 30
0.0
 10
530.132188
 20
365.882187
 30
0.0
 10
529.332178
 20
366.615527
 30
0.0
  0
SPLINE
  5
126
100
AcDbEntity
  8
Capa_1
 62
7
100
AcDbSpline
 70
8
 71
3
 72
8
 73
4
 74
0
 40
0
 40
0
 40
0
 40
0
 40
1
 40
1
 40
1
 40
1
 10
529.332178
 20
366.615527
 30
0.0
 10
528.598833
 20
367.348872
 30
0.0
 10
528.232161
 20
368.248885
 30
0.0
 10
528.232161
 20
369.315565
 30
0.0
  0
LWPOLYLINE
  5
127
100
AcDbEntity
  8
Capa_1
 62
7
100
AcDbPolyline
 90
3
 70
0
 10
554.732496
 20
333.915122
 30
0.0
 10
554.732496
 20
365.515517
 30
0.0
 10
532.432213
 20
365.515517
 30
0.0
  0
LWPOLYLINE
  5
128
100
AcDbEntity
  8
Capa_1
 62
7
100
AcDbPolyline
 90
5
 70
0
 10
528.232161
 20
369.315565
 30
0.0
 10
528.232161
 20
380.315702
 30
0.0
 10
572.232718
 20
380.315702
 30
0.0
 10
572.232718
 20
325.315015
 30
0.0
 10
572.232718
 20
325.315015
 30
0.0
  0
SPLINE
  5
129
100
AcDbEntity
  8
Capa_1
 62
7
100
AcDbSpline
 70
8
 71
3
 72
8
 73
4
 74
0
 40
0
 40
0
 40
0
 40
0
 40
1
 40
1
 40
1
 40
1
 10
814.638883
 20
341.015207
 30
0.0
 10
815.705583
 20
341.015207
 30
0.0
 10
816.638933
 20
340.581870
 30
0.0
 10
817.438933
 20
339.715195
 30
0.0
  0
LWPOLYLINE
  5
12a
100
AcDbEntity
  8
Capa_1
 62
7
100
AcDbPolyline
 90
10
 70
1
 10
690.227946
 20
454.716640
 30
0.0
 10
690.227946
 20
438.916435
 30
0.0
 10
621.327081
 20
438.916435
 30
0.0
 10
621.327081
 20
388.815812
 30
0.0
 10
680.227821
 20
388.815812
 30
0.0
 10
680.227821
 20
373.015607
 30
0.0
 10
621.327081
 20
373.015607
 30
0.0
 10
621.327081
 20
311.414837
 30
0.0
 10
601.926838
 20
311.414837
 30
0.0
 10
601.926838
 20
454.716640
 30
0.0
  0
SPLINE
  5
12b
100
AcDbEntity
  8
Capa_1
 62
7
100
AcDbSpline
 70
8
 71
3
 72
8
 73
4
 74
0
 40
0
 40
0
 40
0
 40
0
 40
1
 40
1
 40
1
 40
1
 10
825.139033
 20
331.415087
 30
0.0
 10
819.272283
 20
324.615002
 30
0.0
 10
812.138858
 20
319.314937
 30
0.0
 10
803.738758
 20
315.514892
 30
0.0
  0
SPLINE
  5
12c
100
AcDbEntity
  8
Capa_1
 62
7
100
AcDbSpline
 70
8
 71
3
 72
8
 73
4
 74
0
 40
0
 40
0
 40
0
 40
0
 40
1
 40
1
 40
1
 40
1
 10
803.738758
 20
315.514892
 30
0.0
 10
795.405308
 20
311.714842
 30
0.0
 10
785.305183
 20
309.814817
 30
0.0
 10
773.438383
 20
309.814817
 30
0.0
  0
SPLINE
  5
12d
100
AcDbEntity
  8
Capa_1
 62
7
100
AcDbSpline
 70
8
 71
3
 72
8
 73
4
 74
0
 40
0
 40
0
 40
0
 40
0
 40
1
 40
1
 40
1
 40
1
 10
773.438383
 20
309.814817
 30
0.0
 10
763.171583
 20
309.814817
 30
0.0
 10
753.838133
 20
311.581507
 30
0.0
 10
745.438033
 20
315.114887
 30
0.0
  0
SPLINE
  5
12e
100
AcDbEntity
  8
Capa_1
 62
7
100
AcDbSpline
 70
8
 71
3
 72
8
 73
4
 74
0
 40
0
 40
0
 40
0
 40
0
 40
1
 40
1
 40
1
 40
1
 10
745.438033
 20
315.114887
 30
0.0
 10
737.037933
 20
318.714932
 30
0.0
 10
729.871168
 20
323.714995
 30
0.0
 10
723.937738
 20
330.115075
 30
0.0
  0
SPLINE
  5
12f
100
AcDbEntity
  8
Capa_1
 62
7
100
AcDbSpline
 70
8
 71
3
 72
8
 73
4
 74
0
 40
0
 40
0
 40
0
 40
0
 40
1
 40
1
 40
1
 40
1
 10
723.937738
 20
330.115075
 30
0.0
 10
718.004328
 20
336.581820
 30
0.0
 10
713.404271
 20
344.315250
 30
0.0
 10
710.137566
 20
353.315365
 30
0.0
  0
SPLINE
  5
130
100
AcDbEntity
  8
Capa_1
 62
7
100
AcDbSpline
 70
8
 71
3
 72
8
 73
4
 74
0
 40
0
 40
0
 40
0
 40
0
 40
1
 40
1
 40
1
 40
1
 10
710.137566
 20
353.315365
 30
0.0
 10
706.870856
 20
362.315475
 30
0.0
 10
705.237501
 20
372.215600
 30
0.0
 10
705.237501
 20
383.015740
 30
0.0
  0
SPLINE
  5
131
100
AcDbEntity
  8
Capa_1
 62
7
100
AcDbSpline
 70
8
 71
3
 72
8
 73
4
 74
0
 40
0
 40
0
 40
0
 40
0
 40
1
 40
1
 40
1
 40
1
 10
705.237501
 20
383.015740
 30
0.0
 10
705.237501
 20
393.815875
 30
0.0
 10
706.937523
 20
403.715997
 30
0.0
 10
710.337568
 20
412.716107
 30
0.0
  0
SPLINE
  5
132
100
AcDbEntity
  8
Capa_1
 62
7
100
AcDbSpline
 70
8
 71
3
 72
8
 73
4
 74
0
 40
0
 40
0
 40
0
 40
0
 40
1
 40
1
 40
1
 40
1
 10
710.337568
 20
412.716107
 30
0.0
 10
713.737608
 20
421.716222
 30
0.0
 10
718.504336
 20
429.449652
 30
0.0
 10
724.637751
 20
435.916397
 30
0.0
  0
SPLINE
  5
133
100
AcDbEntity
  8
Capa_1
 62
7
100
AcDbSpline
 70
8
 71
3
 72
8
 73
4
 74
0
 40
0
 40
0
 40
0
 40
0
 40
1
 40
1
 40
1
 40
1
 10
724.637751
 20
435.916397
 30
0.0
 10
730.837806
 20
442.383147
 30
0.0
 10
738.237908
 20
447.383212
 30
0.0
 10
746.838058
 20
450.916592
 30
0.0
  0
SPLINE
  5
134
100
AcDbEntity
  8
Capa_1
 62
7
100
AcDbSpline
 70
8
 71
3
 72
8
 73
4
 74
0
 40
0
 40
0
 40
0
 40
0
 40
1
 40
1
 40
1
 40
1
 10
746.838058
 20
450.916592
 30
0.0
 10
755.438158
 20
454.516637
 30
0.0
 10
764.938258
 20
456.316660
 30
0.0
 10
775.338358
 20
456.316660
 30
0.0
  0
SPLINE
  5
135
100
AcDbEntity
  8
Capa_1
 62
7
100
AcDbSpline
 70
8
 71
3
 72
8
 73
4
 74
0
 40
0
 40
0
 40
0
 40
0
 40
1
 40
1
 40
1
 40
1
 10
775.338358
 20
456.316660
 30
0.0
 10
785.538508
 20
456.316660
 30
0.0
 10
794.538633
 20
454.683305
 30
0.0
 10
802.338733
 20
451.416595
 30
0.0
  0
SPLINE
  5
136
100
AcDbEntity
  8
Capa_1
 62
7
100
AcDbSpline
 70
8
 71
3
 72
8
 73
4
 74
0
 40
0
 40
0
 40
0
 40
0
 40
1
 40
1
 40
1
 40
1
 10
802.338733
 20
451.416595
 30
0.0
 10
810.138833
 20
448.149885
 30
0.0
 10
817.005583
 20
443.716495
 30
0.0
 10
822.938983
 20
438.116425
 30
0.0
  0
LWPOLYLINE
  5
137
100
AcDbEntity
  8
Capa_1
 62
7
100
AcDbPolyline
 90
2
 70
0
 10
817.438933
 20
339.715195
 30
0.0
 10
825.139033
 20
331.415087
 30
0.0
  0
SPLINE
  5
138
100
AcDbEntity
  8
Capa_1
 62
7
100
AcDbSpline
 70
8
 71
3
 72
8
 73
4
 74
0
 40
0
 40
0
 40
0
 40
0
 40
1
 40
1
 40
1
 40
1
 10
816.538933
 20
429.216317
 30
0.0
 10
816.138883
 20
428.549642
 30
0.0
 10
815.605533
 20
427.982967
 30
0.0
 10
814.938883
 20
427.516292
 30
0.0
  0
SPLINE
  5
139
100
AcDbEntity
  8
Capa_1
 62
7
100
AcDbSpline
 70
8
 71
3
 72
8
 73
4
 74
0
 40
0
 40
0
 40
0
 40
0
 40
1
 40
1
 40
1
 40
1
 10
814.938883
 20
427.516292
 30
0.0
 10
814.338883
 20
427.116287
 30
0.0
 10
813.505533
 20
426.916285
 30
0.0
 10
812.438833
 20
426.916285
 30
0.0
  0
SPLINE
  5
13a
100
AcDbEntity
  8
Capa_1
 62
7
100
AcDbSpline
 70
8
 71
3
 72
8
 73
4
 74
0
 40
0
 40
0
 40
0
 40
0
 40
1
 40
1
 40
1
 40
1
 10
812.438833
 20
426.916285
 30
0.0
 10
811.238833
 20
426.916285
 30
0.0
 10
809.772158
 20
427.549627
 30
0.0
 10
808.038808
 20
428.816312
 30
0.0
  0
SPLINE
  5
13b
100
AcDbEntity
  8
Capa_1
 62
7
100
AcDbSpline
 70
8
 71
3
 72
8
 73
4
 74
0
 40
0
 40
0
 40
0
 40
0
 40
1
 40
1
 40
1
 40
1
 10
808.038808
 20
428.816312
 30
0.0
 10
806.305458
 20
430.149662
 30
0.0
 10
804.038758
 20
431.616347
 30
0.0
 10
801.238708
 20
433.216367
 30
0.0
  0
SPLINE
  5
13c
100
AcDbEntity
  8
Capa_1
 62
7
100
AcDbSpline
 70
8
 71
3
 72
8
 73
4
 74
0
 40
0
 40
0
 40
0
 40
0
 40
1
 40
1
 40
1
 40
1
 10
801.238708
 20
433.216367
 30
0.0
 10
798.438658
 20
434.816387
 30
0.0
 10
794.938608
 20
436.249737
 30
0.0
 10
790.738558
 20
437.516417
 30
0.0
  0
SPLINE
  5
13d
100
AcDbEntity
  8
Capa_1
 62
7
100
AcDbSpline
 70
8
 71
3
 72
8
 73
4
 74
0
 40
0
 40
0
 40
0
 40
0
 40
1
 40
1
 40
1
 40
1
 10
790.738558
 20
437.516417
 30
0.0
 10
786.538508
 20
438.849767
 30
0.0
 10
781.371783
 20
439.516442
 30
0.0
 10
775.238383
 20
439.516442
 30
0.0
  0
SPLINE
  5
13e
100
AcDbEntity
  8
Capa_1
 62
7
100
AcDbSpline
 70
8
 71
3
 72
8
 73
4
 74
0
 40
0
 40
0
 40
0
 40
0
 40
1
 40
1
 40
1
 40
1
 10
775.238383
 20
439.516442
 30
0.0
 10
767.838283
 20
439.516442
 30
0.0
 10
761.071533
 20
438.216427
 30
0.0
 10
754.938133
 20
435.616397
 30
0.0
  0
SPLINE
  5
13f
100
AcDbEntity
  8
Capa_1
 62
7
100
AcDbSpline
 70
8
 71
3
 72
8
 73
4
 74
0
 40
0
 40
0
 40
0
 40
0
 40
1
 40
1
 40
1
 40
1
 10
754.938133
 20
435.616397
 30
0.0
 10
748.804733
 20
433.083032
 30
0.0
 10
743.504658
 20
429.382985
 30
0.0
 10
739.037908
 20
424.516255
 30
0.0
  0
SPLINE
  5
140
100
AcDbEntity
  8
Capa_1
 62
7
100
AcDbSpline
 70
8
 71
3
 72
8
 73
4
 74
0
 40
0
 40
0
 40
0
 40
0
 40
1
 40
1
 40
1
 40
1
 10
739.037908
 20
424.516255
 30
0.0
 10
734.637858
 20
419.649530
 30
0.0
 10
731.204483
 20
413.716122
 30
0.0
 10
728.737783
 20
406.716032
 30
0.0
  0
SPLINE
  5
141
100
AcDbEntity
  8
Capa_1
 62
7
100
AcDbSpline
 70
8
 71
3
 72
8
 73
4
 74
0
 40
0
 40
0
 40
0
 40
0
 40
1
 40
1
 40
1
 40
1
 10
728.737783
 20
406.716032
 30
0.0
 10
726.271098
 20
399.715947
 30
0.0
 10
725.037756
 20
391.815850
 30
0.0
 10
725.037756
 20
383.015740
 30
0.0
  0
SPLINE
  5
142
100
AcDbEntity
  8
Capa_1
 62
7
100
AcDbSpline
 70
8
 71
3
 72
8
 73
4
 74
0
 40
0
 40
0
 40
0
 40
0
 40
1
 40
1
 40
1
 40
1
 10
725.037756
 20
383.015740
 30
0.0
 10
725.037756
 20
374.082290
 30
0.0
 10
726.304448
 20
366.115522
 30
0.0
 10
728.837833
 20
359.115437
 30
0.0
  0
SPLINE
  5
143
100
AcDbEntity
  8
Capa_1
 62
7
100
AcDbSpline
 70
8
 71
3
 72
8
 73
4
 74
0
 40
0
 40
0
 40
0
 40
0
 40
1
 40
1
 40
1
 40
1
 10
728.837833
 20
359.115437
 30
0.0
 10
731.437833
 20
352.115347
 30
0.0
 10
734.937858
 20
346.181940
 30
0.0
 10
739.337908
 20
341.315215
 30
0.0
  0
SPLINE
  5
144
100
AcDbEntity
  8
Capa_1
 62
7
100
AcDbSpline
 70
8
 71
3
 72
8
 73
4
 74
0
 40
0
 40
0
 40
0
 40
0
 40
1
 40
1
 40
1
 40
1
 10
739.337908
 20
341.315215
 30
0.0
 10
743.804658
 20
336.515155
 30
0.0
 10
749.038058
 20
332.848442
 30
0.0
 10
755.038108
 20
330.315077
 30
0.0
  0
SPLINE
  5
145
100
AcDbEntity
  8
Capa_1
 62
7
100
AcDbSpline
 70
8
 71
3
 72
8
 73
4
 74
0
 40
0
 40
0
 40
0
 40
0
 40
1
 40
1
 40
1
 40
1
 10
755.038108
 20
330.315077
 30
0.0
 10
761.104858
 20
327.781712
 30
0.0
 10
767.638283
 20
326.515030
 30
0.0
 10
774.638383
 20
326.515030
 30
0.0
  0
SPLINE
  5
146
100
AcDbEntity
  8
Capa_1
 62
7
100
AcDbSpline
 70
8
 71
3
 72
8
 73
4
 74
0
 40
0
 40
0
 40
0
 40
0
 40
1
 40
1
 40
1
 40
1
 10
774.638383
 20
326.515030
 30
0.0
 10
778.905083
 20
326.515030
 30
0.0
 10
782.738458
 20
326.748365
 30
0.0
 10
786.138508
 20
327.215035
 30
0.0
  0
SPLINE
  5
147
100
AcDbEntity
  8
Capa_1
 62
7
100
AcDbSpline
 70
8
 71
3
 72
8
 73
4
 74
0
 40
0
 40
0
 40
0
 40
0
 40
1
 40
1
 40
1
 40
1
 10
786.138508
 20
327.215035
 30
0.0
 10
789.605208
 20
327.748375
 30
0.0
 10
792.771908
 20
328.548385
 30
0.0
 10
795.638608
 20
329.615065
 30
0.0
  0
SPLINE
  5
148
100
AcDbEntity
  8
Capa_1
 62
7
100
AcDbSpline
 70
8
 71
3
 72
8
 73
4
 74
0
 40
0
 40
0
 40
0
 40
0
 40
1
 40
1
 40
1
 40
1
 10
795.638608
 20
329.615065
 30
0.0
 10
798.572008
 20
330.681745
 30
0.0
 10
801.272058
 20
332.015095
 30
0.0
 10
803.738758
 20
333.615115
 30
0.0
  0
SPLINE
  5
149
100
AcDbEntity
  8
Capa_1
 62
7
100
AcDbSpline
 70
8
 71
3
 72
8
 73
4
 74
0
 40
0
 40
0
 40
0
 40
0
 40
1
 40
1
 40
1
 40
1
 10
803.738758
 20
333.615115
 30
0.0
 10
806.272108
 20
335.281805
 30
0.0
 10
808.772133
 20
337.248497
 30
0.0
 10
811.238833
 20
339.515192
 30
0.0
  0
SPLINE
  5
14a
100
AcDbEntity
  8
Capa_1
 62
7
100
AcDbSpline
 70
8
 71
3
 72
8
 73
4
 74
0
 40
0
 40
0
 40
0
 40
0
 40
1
 40
1
 40
1
 40
1
 10
811.238833
 20
339.515192
 30
0.0
 10
812.372183
 20
340.515202
 30
0.0
 10
813.505533
 20
341.015207
 30
0.0
 10
814.638883
 20
341.015207
 30
0.0
  0
LWPOLYLINE
  5
14b
100
AcDbEntity
  8
Capa_1
 62
7
100
AcDbPolyline
 90
2
 70
0
 10
822.938983
 20
438.116425
 30
0.0
 10
816.538933
 20
429.216317
 30
0.0
  0
LWPOLYLINE
  5
14c
100
AcDbEntity
  8
Capa_1
 62
7
100
AcDbPolyline
 90
1
 70
1
 10
814.638883
 20
341.015207
 30
0.0
  0
LWPOLYLINE
  5
14d
100
AcDbEntity
  8
Capa_1
 62
7
100
AcDbPolyline
 90
8
 70
1
 10
944.534308
 20
454.716640
 30
0.0
 10
944.534308
 20
438.416432
 30
0.0
 10
898.133683
 20
438.416432
 30
0.0
 10
898.133683
 20
311.414837
 30
0.0
 10
878.833483
 20
311.414837
 30
0.0
 10
878.833483
 20
438.416432
 30
0.0
 10
832.332883
 20
438.416432
 30
0.0
 10
832.332883
 20
454.716640
 30
0.0
  0
ENDSEC
  0
SECTION
  2
OBJECTS
  0
DICTIONARY
  5
C
330
0
100
AcDbDictionary
  3
ACAD_GROUP
350
D
  3
ACAD_MLINESTYLE
350
17
  0
DICTIONARY
  5
D
330
C
100
AcDbDictionary
  0
DICTIONARY
  5
1A
330
C
100
AcDbDictionary
  0
DICTIONARY
  5
17
330
C
100
AcDbDictionary
  3
STANDARD
350
18
  0
DICTIONARY
  5
19
330
C
100
AcDbDictionary
  0
ENDSEC
  0
EOF
